<svg width="138" height="33" viewBox="0 0 138 33" fill="none" xmlns="http://www.w3.org/2000/svg">
<path d="M10.1433 26.0236C16.137 26.0236 20.0845 22.7335 20.121 17.9456C20.1488 14.057 17.9492 12.3537 14.9836 11.406C14.3817 11.2137 13.7483 11.0527 13.0951 10.9104C12.7018 10.8249 12.302 10.7464 11.8973 10.6722C11.0286 10.5077 10.2538 10.3582 9.57023 10.2069C6.91935 9.61943 5.64736 9.00292 5.64736 7.34619C5.6364 6.99516 5.69708 6.64558 5.82572 6.31879C5.95435 5.99199 6.14823 5.69484 6.39552 5.44546C7.24363 4.84455 8.23954 4.48628 9.2761 4.4092C10.3127 4.33212 11.3506 4.53916 12.2783 5.00803C13.257 5.50292 14.065 6.27969 14.5981 7.23815C14.6745 7.37862 14.801 7.4852 14.9524 7.53674C15.1038 7.58827 15.269 7.58099 15.4153 7.51634L18.7522 6.02992C18.9004 5.96461 19.018 5.845 19.0808 5.69567C19.1435 5.54634 19.1466 5.37865 19.0896 5.22708C17.8458 1.97259 14.4453 0 9.66786 0C3.89299 0 0.128379 3.216 0.128379 7.74761C0.128379 11.2497 1.85895 13.0211 4.30945 14.0498C5.49108 14.5457 6.83973 14.8696 8.24256 15.1308C12.5193 15.9718 14.6025 16.4104 14.6025 18.5668C14.6099 18.9327 14.541 19.296 14.4002 19.6338C14.2594 19.9715 14.0498 20.2762 13.7848 20.5285C12.719 21.2706 11.4522 21.6699 10.1535 21.6732C9.79937 21.6713 9.44575 21.6453 9.09513 21.5954C9.08569 21.5937 9.07637 21.5923 9.06703 21.5909C9.06116 21.5899 9.05529 21.589 9.04937 21.5881C9.04609 21.5875 9.04281 21.5871 9.03951 21.5866C9.03366 21.5857 9.02774 21.5848 9.02162 21.5836C8.30745 21.4648 7.61882 21.2249 6.98543 20.8743C5.92485 20.2939 5.06729 19.4029 4.528 18.3209C4.45608 18.1724 4.32928 18.0577 4.17436 18.0009C4.01945 17.9442 3.84854 17.9499 3.69773 18.0168L0.377327 19.4951C0.230874 19.5602 0.114437 19.6783 0.0513342 19.8256C-0.0117689 19.973 -0.0168793 20.1387 0.0370266 20.2897C1.30275 23.8256 4.93966 26.0236 10.1433 26.0236Z" fill="#F84F39"/>
<path d="M100.101 0.22792H96.2187C95.8676 0.22792 95.583 0.512518 95.583 0.863588V25.1759C95.583 25.527 95.8676 25.8116 96.2187 25.8116H100.101C100.452 25.8116 100.736 25.527 100.736 25.1759V0.863588C100.736 0.512518 100.452 0.22792 100.101 0.22792Z" fill="#F84F39"/>
<path d="M104.375 0.378698C104.652 0.365152 104.74 0.362178 105.445 0.362178C106.15 0.362178 106.238 0.365152 106.515 0.378698C106.73 0.383001 106.943 0.423776 107.145 0.49929C107.317 0.565849 107.474 0.667743 107.605 0.798433C107.736 0.929124 107.838 1.08573 107.905 1.25819C107.98 1.45989 108.021 1.67292 108.025 1.88824C108.038 2.16511 108.041 2.25316 108.041 2.95804C108.041 3.66293 108.038 3.7513 108.025 4.02801C108.021 4.24327 107.98 4.45626 107.905 4.65789C107.838 4.8304 107.736 4.98704 107.605 5.11776C107.474 5.24849 107.317 5.3504 107.145 5.41696C106.943 5.49247 106.73 5.53325 106.515 5.53755C106.238 5.55011 106.149 5.55308 105.445 5.55308C104.74 5.55308 104.652 5.55011 104.375 5.53755C104.16 5.53322 103.947 5.49245 103.745 5.41696C103.573 5.35027 103.416 5.24829 103.285 5.11758C103.155 4.98687 103.053 4.83029 102.986 4.65789C102.91 4.45626 102.87 4.24327 102.865 4.02801C102.852 3.75097 102.849 3.66276 102.849 2.95804C102.849 2.25332 102.853 2.16494 102.865 1.88824C102.87 1.67292 102.91 1.45989 102.986 1.25819C103.053 1.08583 103.155 0.9293 103.285 0.798617C103.416 0.667935 103.573 0.565983 103.745 0.49929C103.947 0.423798 104.16 0.383024 104.375 0.378698Z" fill="#F84F39"/>
<path d="M135.368 21.4431H137.364C137.448 21.4431 137.53 21.4595 137.608 21.4914C137.685 21.5233 137.755 21.5701 137.814 21.6292C137.873 21.6882 137.92 21.7582 137.952 21.8353C137.984 21.9125 138 21.9951 138 22.0786V25.1568C138 25.2403 137.984 25.3229 137.952 25.4001C137.92 25.4772 137.873 25.5473 137.814 25.6063C137.755 25.6653 137.685 25.7121 137.608 25.7441C137.53 25.776 137.448 25.7925 137.364 25.7925H133.724C133.018 25.7925 132.319 25.6535 131.668 25.3835C131.016 25.1135 130.423 24.7177 129.924 24.2188C129.426 23.7198 129.03 23.1275 128.76 22.4757C128.49 21.8238 128.351 21.1251 128.351 20.4195V4.57244C128.351 4.41274 128.397 4.25647 128.484 4.12254C128.571 3.98861 128.695 3.88277 128.841 3.81784L132.61 2.14062C132.707 2.09757 132.813 2.07938 132.919 2.08771C133.024 2.09604 133.126 2.13062 133.215 2.18831C133.304 2.246 133.377 2.32498 133.427 2.41805C133.478 2.51113 133.504 2.61536 133.504 2.72128V7.00592H137.145C137.314 7.00592 137.475 7.07289 137.594 7.1921C137.714 7.31131 137.781 7.473 137.781 7.64159V10.7198C137.781 10.8033 137.764 10.8859 137.732 10.9631C137.7 11.0402 137.653 11.1102 137.594 11.1692C137.535 11.2283 137.465 11.2751 137.388 11.307C137.311 11.3389 137.228 11.3553 137.145 11.3553H133.504V19.579C133.504 20.0734 133.701 20.5475 134.05 20.8971C134.4 21.2467 134.874 21.4431 135.368 21.4431Z" fill="#F84F39"/>
<path d="M118.538 26.0118C123.582 26.0118 127.091 23.6362 127.091 19.9081C127.091 16.9826 125.386 15.6062 122.912 14.8886C121.695 14.5641 120.451 14.3477 119.196 14.2421C119.11 14.2316 119.026 14.2214 118.942 14.2113L118.936 14.2106C116.389 13.9031 114.883 13.7214 114.883 12.3423C114.881 12.0625 114.959 11.7879 115.108 11.5511C115.562 10.8285 116.675 10.4104 118.184 10.4056C118.237 10.4036 118.291 10.4026 118.345 10.4026C119.935 10.4026 121.338 11.0992 122.166 12.1585C122.253 12.2697 122.375 12.3485 122.512 12.3825C122.649 12.4164 122.794 12.4036 122.923 12.346L125.712 11.1052C125.794 11.0684 125.868 11.0145 125.928 10.9471C125.988 10.8797 126.033 10.8003 126.06 10.7141C126.087 10.628 126.095 10.537 126.084 10.4474C126.073 10.3578 126.044 10.2715 125.997 10.1943C124.661 7.98385 121.779 6.75067 118.028 6.75067C113.203 6.71417 109.95 9.16301 109.95 12.8911C109.95 15.4308 111.411 16.7294 113.653 17.467C114.725 17.7966 115.824 18.0294 116.937 18.1628C117.199 18.1979 117.465 18.2315 117.735 18.2634L118.406 18.3518C120.958 18.6912 122.048 18.8934 122.048 20.3102C122.056 20.7212 121.903 21.1192 121.623 21.4194C121.09 21.9936 120.077 22.2999 118.711 22.3189C118.666 22.3204 118.621 22.3204 118.576 22.3204C118.151 22.3227 117.727 22.286 117.308 22.2107C117.017 22.1582 116.73 22.0794 116.453 21.9753C115.517 21.657 114.706 21.0529 114.132 20.2484C114.048 20.1262 113.924 20.0374 113.782 19.9975C113.639 19.9575 113.487 19.969 113.352 20.0298L110.56 21.2724C110.48 21.3076 110.409 21.3588 110.35 21.4228C110.291 21.4868 110.246 21.5623 110.217 21.6445C110.189 21.7267 110.177 21.8139 110.184 21.9007C110.191 21.9875 110.215 22.072 110.256 22.1489C111.562 24.5956 114.564 26.0118 118.538 26.0118Z" fill="#F84F39"/>
<path d="M107.403 7.02543H103.485C103.133 7.02543 102.849 7.31003 102.849 7.6611V25.1763C102.849 25.5274 103.133 25.812 103.485 25.812H107.403C107.754 25.812 108.039 25.5274 108.039 25.1763V7.6611C108.039 7.31003 107.754 7.02543 107.403 7.02543Z" fill="#F84F39"/>
<path d="M93.8952 11.0492V7.64207C93.8952 7.47357 93.8283 7.31196 93.7092 7.19276C93.59 7.07357 93.4285 7.00654 93.26 7.00641H93.0182C92.0609 6.98214 91.1082 7.14486 90.2133 7.48547C90.1059 7.52941 87.6059 8.64629 87.6059 8.64629V7.64207C87.6059 7.47348 87.5389 7.3118 87.4197 7.19259C87.3005 7.07338 87.1388 7.00641 86.9702 7.00641H83.091C82.9224 7.00649 82.7608 7.07349 82.6416 7.19268C82.5224 7.31188 82.4554 7.47351 82.4553 7.64207V25.1573C82.4554 25.3259 82.5224 25.4875 82.6416 25.6067C82.7608 25.7259 82.9224 25.7929 83.091 25.793H86.973C87.1416 25.7929 87.3032 25.7259 87.4224 25.6067C87.5415 25.4875 87.6085 25.3258 87.6085 25.1573V16.5824C87.6085 13.7316 88.7781 11.6847 91.8484 11.6847H93.2595C93.428 11.6847 93.5897 11.6177 93.7089 11.4985C93.8281 11.3794 93.8951 11.2178 93.8952 11.0492Z" fill="#F84F39"/>
<path fill-rule="evenodd" clip-rule="evenodd" d="M63.2259 11.5282C63.9877 10.108 65.1444 8.9387 66.5562 8.16139C67.9834 7.36876 69.6363 6.97228 71.5149 6.97196C73.4181 6.97196 75.0954 7.34405 76.5468 8.08822C77.9564 8.7939 79.1366 9.8853 79.9502 11.2355C80.7673 12.5895 81.1882 14.1814 81.2127 16.0112C81.2154 16.4803 81.1858 16.9491 81.1242 17.4142C81.1109 17.512 81.0626 17.6018 80.9883 17.6668C80.9139 17.7318 80.8185 17.7677 80.7198 17.7678H67.416V17.9146C67.5378 19.2812 67.9769 20.3547 68.7335 21.1351C69.49 21.9154 70.5268 22.3056 71.8441 22.3057C72.8928 22.3057 73.765 22.0801 74.4607 21.6287C75.0785 21.2282 75.5354 20.6229 75.7512 19.919C75.7772 19.8369 75.8285 19.7651 75.8977 19.714C75.967 19.6628 76.0507 19.6349 76.1368 19.6342H80.4273C80.4885 19.6343 80.5489 19.6481 80.604 19.6746C80.6592 19.7011 80.7077 19.7397 80.7459 19.7874C80.7841 19.8352 80.8112 19.8909 80.825 19.9505C80.8388 20.0101 80.8391 20.0721 80.8258 20.1318C80.594 21.1731 80.1394 22.1518 79.4932 23.0006C78.7366 24.0012 77.7363 24.788 76.4923 25.361C75.2483 25.9341 73.8211 26.2208 72.2106 26.2211C70.112 26.2211 68.3005 25.8307 66.7761 25.05C65.2954 24.3118 64.0713 23.145 63.2629 21.7015C62.4452 20.2502 62.0365 18.5607 62.0369 16.6329C62.0367 14.6816 62.433 12.98 63.2259 11.5282ZM74.6438 11.7479C75.4121 12.3702 75.8819 13.2545 76.053 14.401L67.5259 14.401C67.6724 13.3031 68.1299 12.4309 68.8982 11.7844C69.6666 11.1379 70.612 10.8146 71.7344 10.8146C72.9057 10.8145 73.8755 11.1256 74.6438 11.7479Z" fill="#F84F39"/>
<path fill-rule="evenodd" clip-rule="evenodd" d="M49.5947 7.36179C50.4367 7.05931 51.3255 6.90831 52.2201 6.91576C57.3005 6.87925 60.9563 10.6439 60.9563 16.5649C60.9563 22.2023 57.5577 25.8697 52.794 26.1259C52.6168 26.1357 52.4377 26.1406 52.2568 26.1406C51.2203 26.1538 50.1917 25.9588 49.2319 25.5672L46.5916 24.3917V30.4004C46.5916 30.5601 46.5454 30.7164 46.4584 30.8503C46.3714 30.9842 46.2475 31.0901 46.1017 31.1551L42.3323 32.8333C42.2355 32.8763 42.1295 32.8946 42.0239 32.8862C41.9182 32.8779 41.8164 32.8434 41.7275 32.7857C41.6387 32.728 41.5657 32.649 41.5151 32.5559C41.4646 32.4628 41.4381 32.3585 41.4381 32.2526V7.77081C41.4381 7.68733 41.4545 7.60467 41.4864 7.52755C41.5184 7.45042 41.5652 7.38035 41.6242 7.32132C41.6833 7.2623 41.7533 7.21547 41.8305 7.18353C41.9076 7.15158 41.9902 7.13514 42.0737 7.13514H45.9558C46.1244 7.13514 46.2861 7.20211 46.4053 7.32132C46.5245 7.44053 46.5915 7.60222 46.5915 7.77081V8.68631C46.5915 8.68631 49.5253 7.3869 49.5947 7.36179ZM46.5183 16.4922C46.5183 19.7079 48.2726 21.938 51.0871 21.938C53.9013 21.938 55.7289 19.7079 55.729 16.4922C55.729 13.3119 53.9015 11.119 51.0871 11.119C48.2726 11.119 46.5183 13.3124 46.5183 16.4922Z" fill="#F84F39"/>
<path d="M39.4509 7.64194V25.1605C39.4508 25.329 39.3838 25.4906 39.2646 25.6098C39.1454 25.729 38.9838 25.7959 38.8152 25.796H34.9332C34.8497 25.796 34.767 25.7796 34.6899 25.7477C34.6128 25.7158 34.5427 25.6689 34.4837 25.6099C34.4247 25.5509 34.3779 25.4808 34.3459 25.4037C34.314 25.3266 34.2976 25.2439 34.2976 25.1605V24.386L31.9752 25.4193C31.2308 25.74 30.437 25.9309 29.6283 25.984C29.3904 26.0021 29.1438 26.012 28.8875 26.012C25.0132 26.012 21.4313 24.075 21.4313 17.4229V7.64194C21.4313 7.47335 21.4983 7.31167 21.6175 7.19245C21.7367 7.07324 21.8984 7.00627 22.067 7.00627H25.9491C26.1176 7.00627 26.2793 7.07324 26.3985 7.19245C26.5178 7.31167 26.5847 7.47335 26.5847 7.64194V16.7285C26.5847 20.091 27.6813 21.7358 30.2396 21.7358C32.798 21.7358 34.2967 19.8718 34.2967 16.4V7.64194C34.2967 7.47335 34.3636 7.31167 34.4828 7.19245C34.6021 7.07324 34.7637 7.00627 34.9323 7.00627H38.8144C38.8979 7.00616 38.9807 7.02252 39.0579 7.05442C39.1351 7.08632 39.2053 7.13312 39.2644 7.19216C39.3235 7.2512 39.3704 7.32131 39.4024 7.39849C39.4344 7.47567 39.4509 7.55839 39.4509 7.64194Z" fill="#F84F39"/>
</svg>
