<svg width="1331" height="318" viewBox="0 0 1331 318" fill="none" xmlns="http://www.w3.org/2000/svg">
<path d="M98.6744 251.315C156.419 251.315 194.449 219.618 194.801 173.491C195.068 136.028 173.877 119.618 145.307 110.488C139.507 108.636 133.406 107.084 127.113 105.714C123.324 104.889 119.472 104.133 115.573 103.419C107.203 101.833 99.7391 100.393 93.1535 98.9353C67.6148 93.276 55.3602 87.3365 55.3602 71.3754C55.2546 67.9936 55.8393 64.6257 57.0786 61.4773C58.3178 58.3289 60.1857 55.4661 62.5681 53.0636C70.7389 47.2744 80.3336 43.8227 90.3198 43.0802C100.306 42.3376 110.306 44.3322 119.243 48.8494C128.672 53.6171 136.457 61.1006 141.592 70.3346C142.329 71.6878 143.547 72.7147 145.006 73.2111C146.464 73.7076 148.056 73.6375 149.465 73.0146L181.614 58.6944C183.042 58.0652 184.174 56.9128 184.779 55.4742C185.383 54.0355 185.414 52.42 184.863 50.9597C172.881 19.6056 140.12 0.601562 94.0941 0.601562C38.4585 0.601562 2.18994 31.5848 2.18994 75.2427C2.18994 108.982 18.8625 126.048 42.4707 135.958C53.8547 140.736 66.8477 143.857 80.3626 146.373C121.565 154.475 141.635 158.701 141.635 179.476C141.706 183.001 141.042 186.501 139.686 189.755C138.33 193.009 136.311 195.945 133.757 198.375C123.489 205.524 111.285 209.371 98.7731 209.403C95.3611 209.384 91.9543 209.134 88.5764 208.653C88.4854 208.637 88.3957 208.624 88.3056 208.61C88.2492 208.601 88.1926 208.592 88.1355 208.583C88.1039 208.578 88.0723 208.573 88.0405 208.568C87.9842 208.56 87.9271 208.551 87.8681 208.54C80.9878 207.396 74.3535 205.085 68.2514 201.706C58.0336 196.115 49.7719 187.531 44.5763 177.106C43.8834 175.676 42.6618 174.571 41.1693 174.024C39.6768 173.477 38.0303 173.532 36.5774 174.177L4.58832 188.419C3.17739 189.046 2.05562 190.184 1.44768 191.603C0.839742 193.023 0.790509 194.62 1.30984 196.074C13.5039 230.14 48.5423 251.315 98.6744 251.315Z" fill="white"/>
<path d="M965.332 2.79736H927.932C924.55 2.79736 921.808 5.53921 921.808 8.92144V243.148C921.808 246.531 924.55 249.272 927.932 249.272H965.332C968.714 249.272 971.456 246.531 971.456 243.148V8.92144C971.456 5.53921 968.714 2.79736 965.332 2.79736Z" fill="white"/>
<path d="M1006.51 4.24997C1009.18 4.11947 1010.03 4.09082 1016.82 4.09082C1023.61 4.09082 1024.46 4.11947 1027.12 4.24997C1029.2 4.29143 1031.25 4.68426 1033.19 5.41176C1034.86 6.053 1036.37 7.03465 1037.63 8.29374C1038.89 9.55283 1039.87 11.0615 1040.51 12.7231C1041.24 14.6662 1041.63 16.7186 1041.68 18.7931C1041.8 21.4604 1041.83 22.3087 1041.83 29.0996C1041.83 35.8905 1041.8 36.742 1041.68 39.4077C1041.63 41.4816 1041.24 43.5335 1040.51 45.4761C1039.87 47.138 1038.89 48.6472 1037.63 49.9065C1036.37 51.1659 1034.86 52.1478 1033.19 52.789C1031.25 53.5165 1029.2 53.9094 1027.12 53.9508C1024.46 54.0718 1023.61 54.1004 1016.82 54.1004C1010.03 54.1004 1009.18 54.0718 1006.51 53.9508C1004.44 53.9091 1002.38 53.5163 1000.44 52.789C998.78 52.1465 997.271 51.1641 996.012 49.9048C994.753 48.6455 993.771 47.137 993.129 45.4761C992.402 43.5335 992.009 41.4816 991.967 39.4077C991.837 36.7388 991.808 35.8889 991.808 29.0996C991.808 22.3103 991.845 21.4588 991.967 18.7931C992.009 16.7186 992.402 14.6662 993.129 12.7231C993.772 11.0626 994.754 9.55452 996.013 8.29551C997.272 7.0365 998.78 6.05429 1000.44 5.41176C1002.38 4.68447 1004.44 4.29165 1006.51 4.24997Z" fill="white"/>
<path d="M1305.1 207.186H1324.33C1325.14 207.186 1325.93 207.344 1326.68 207.652C1327.42 207.959 1328.09 208.41 1328.66 208.979C1329.23 209.547 1329.68 210.222 1329.99 210.965C1330.3 211.708 1330.46 212.504 1330.46 213.309V242.964C1330.46 243.769 1330.3 244.565 1329.99 245.308C1329.68 246.051 1329.23 246.726 1328.66 247.295C1328.09 247.863 1327.42 248.315 1326.68 248.622C1325.93 248.93 1325.14 249.089 1324.33 249.089H1289.26C1282.46 249.089 1275.73 247.75 1269.45 245.148C1263.17 242.547 1257.46 238.734 1252.66 233.927C1247.85 229.121 1244.04 223.414 1241.44 217.134C1238.83 210.854 1237.5 204.123 1237.5 197.325V44.6529C1237.5 43.1143 1237.94 41.6087 1238.78 40.3185C1239.62 39.0282 1240.81 38.0085 1242.22 37.3829L1278.53 21.2245C1279.46 20.8097 1280.48 20.6345 1281.5 20.7148C1282.52 20.795 1283.5 21.1282 1284.36 21.684C1285.21 22.2398 1285.92 23.0006 1286.4 23.8973C1286.89 24.794 1287.14 25.7982 1287.14 26.8186V68.0972H1322.22C1323.84 68.0972 1325.4 68.7424 1326.55 69.8909C1327.7 71.0394 1328.34 72.5971 1328.34 74.2213V103.877C1328.34 104.681 1328.19 105.478 1327.88 106.221C1327.57 106.963 1327.12 107.638 1326.55 108.207C1325.98 108.776 1325.31 109.227 1324.56 109.534C1323.82 109.842 1323.02 110 1322.22 110H1287.14V189.228C1287.14 193.99 1289.04 198.558 1292.4 201.926C1295.77 205.294 1300.34 207.186 1305.1 207.186Z" fill="white"/>
<path d="M1142.96 251.202C1191.56 251.202 1225.36 228.315 1225.36 192.398C1225.36 164.214 1208.93 150.953 1185.09 144.04C1173.37 140.913 1161.39 138.829 1149.3 137.811C1148.47 137.71 1147.66 137.612 1146.85 137.514L1146.79 137.507C1122.25 134.545 1107.75 132.795 1107.75 119.509C1107.73 116.813 1108.48 114.167 1109.92 111.885C1114.29 104.924 1125.01 100.896 1139.54 100.85C1140.06 100.831 1140.58 100.821 1141.1 100.821C1156.42 100.821 1169.94 107.533 1177.91 117.737C1178.75 118.808 1179.92 119.568 1181.24 119.895C1182.57 120.222 1183.96 120.099 1185.2 119.544L1212.07 107.59C1212.86 107.236 1213.57 106.717 1214.15 106.067C1214.73 105.417 1215.16 104.652 1215.42 103.822C1215.68 102.992 1215.76 102.116 1215.66 101.253C1215.55 100.39 1215.27 99.5584 1214.82 98.8145C1201.95 77.5187 1174.18 65.6382 1138.04 65.6382C1091.56 65.2864 1060.22 88.8788 1060.22 124.796C1060.22 149.263 1074.3 161.774 1095.9 168.88C1106.22 172.055 1116.81 174.299 1127.54 175.583C1130.06 175.922 1132.62 176.245 1135.22 176.553L1141.69 177.404C1166.27 180.675 1176.77 182.623 1176.77 196.271C1176.85 200.231 1175.38 204.066 1172.68 206.958C1167.54 212.49 1157.78 215.441 1144.62 215.624C1144.19 215.638 1143.76 215.638 1143.32 215.638C1139.23 215.661 1135.14 215.307 1131.11 214.582C1128.3 214.076 1125.54 213.317 1122.87 212.314C1113.86 209.247 1106.04 203.427 1100.51 195.676C1099.71 194.499 1098.51 193.644 1097.14 193.259C1095.76 192.874 1094.3 192.985 1092.99 193.571L1066.1 205.542C1065.33 205.881 1064.64 206.374 1064.07 206.991C1063.51 207.608 1063.07 208.335 1062.8 209.127C1062.52 209.919 1062.41 210.759 1062.48 211.595C1062.54 212.431 1062.77 213.245 1063.17 213.986C1075.75 237.558 1104.67 251.202 1142.96 251.202Z" fill="white"/>
<path d="M1035.69 68.2852H997.932C994.55 68.2852 991.808 71.027 991.808 74.4092V243.152C991.808 246.535 994.55 249.276 997.932 249.276H1035.69C1039.07 249.276 1041.81 246.535 1041.81 243.152V74.4092C1041.81 71.027 1039.07 68.2852 1035.69 68.2852Z" fill="white"/>
<path d="M905.547 107.051V74.226C905.547 72.6026 904.903 71.0456 903.755 69.8973C902.608 68.7489 901.051 68.1031 899.428 68.1019H897.098C887.876 67.8681 878.697 69.4358 870.076 72.7172C869.041 73.1406 844.956 83.9007 844.956 83.9007V74.226C844.956 72.6018 844.31 71.0441 843.162 69.8956C842.013 68.7471 840.456 68.1019 838.832 68.1019H801.459C799.835 68.1027 798.277 68.7482 797.129 69.8965C795.981 71.0448 795.335 72.602 795.334 74.226V242.969C795.335 244.593 795.981 246.15 797.129 247.299C798.277 248.447 799.835 249.092 801.459 249.093H838.859C840.482 249.092 842.04 248.447 843.188 247.298C844.336 246.15 844.981 244.593 844.981 242.969V160.358C844.981 132.893 856.249 113.173 885.828 113.173H899.423C901.047 113.173 902.604 112.528 903.752 111.379C904.901 110.231 905.546 108.674 905.547 107.051Z" fill="white"/>
<path fill-rule="evenodd" clip-rule="evenodd" d="M610.077 111.665C617.417 97.9831 628.56 86.7178 642.161 79.2291C655.911 71.5929 671.835 67.7732 689.933 67.77C708.269 67.77 724.429 71.3547 738.411 78.5242C751.991 85.3228 763.362 95.8374 771.201 108.845C779.073 121.89 783.127 137.226 783.364 154.855C783.389 159.374 783.104 163.891 782.511 168.371C782.383 169.314 781.917 170.179 781.201 170.805C780.485 171.431 779.566 171.777 778.614 171.778H650.444V173.192C651.618 186.359 655.849 196.701 663.137 204.219C670.425 211.737 680.415 215.496 693.105 215.497C703.208 215.497 711.611 213.323 718.314 208.975C724.265 205.116 728.667 199.285 730.747 192.503C730.997 191.712 731.491 191.021 732.158 190.528C732.826 190.035 733.632 189.766 734.462 189.759H775.797C776.386 189.76 776.968 189.893 777.499 190.148C778.03 190.404 778.498 190.775 778.866 191.235C779.234 191.695 779.495 192.232 779.628 192.807C779.761 193.381 779.764 193.978 779.636 194.553C777.403 204.585 773.023 214.014 766.797 222.192C759.509 231.831 749.872 239.411 737.887 244.932C725.902 250.453 712.151 253.215 696.636 253.218C676.419 253.218 658.966 249.457 644.279 241.936C630.015 234.824 618.221 223.583 610.433 209.676C602.555 195.694 598.618 179.417 598.622 160.844C598.62 142.045 602.438 125.652 610.077 111.665ZM720.078 113.782C727.48 119.777 732.005 128.297 733.654 139.342L651.504 139.342C652.915 128.765 657.322 120.362 664.724 114.134C672.127 107.905 681.235 104.791 692.049 104.791C703.333 104.789 712.676 107.786 720.078 113.782Z" fill="white"/>
<path fill-rule="evenodd" clip-rule="evenodd" d="M478.753 71.5257C486.864 68.6116 495.428 67.1568 504.046 67.2286C552.991 66.8769 588.211 103.146 588.211 160.189C588.211 214.501 555.469 249.832 509.575 252.301C507.868 252.395 506.143 252.442 504.4 252.442C494.414 252.569 484.504 250.691 475.258 246.918L449.821 235.593V293.482C449.821 295.02 449.375 296.526 448.537 297.816C447.7 299.106 446.506 300.126 445.1 300.752L408.786 316.92C407.853 317.335 406.832 317.511 405.814 317.431C404.797 317.35 403.816 317.017 402.96 316.462C402.104 315.906 401.4 315.145 400.913 314.248C400.426 313.351 400.171 312.347 400.171 311.326V75.4662C400.171 74.662 400.329 73.8656 400.637 73.1226C400.945 72.3796 401.396 71.7045 401.965 71.1358C402.533 70.5671 403.208 70.1161 403.951 69.8083C404.694 69.5005 405.491 69.3421 406.295 69.3421H443.695C445.319 69.3421 446.877 69.9873 448.026 71.1358C449.174 72.2843 449.819 73.842 449.819 75.4662V84.2863C449.819 84.2863 478.084 71.7676 478.753 71.5257ZM449.114 159.489C449.114 190.469 466.016 211.955 493.13 211.955C520.243 211.955 537.85 190.469 537.851 159.489C537.851 128.85 520.245 107.723 493.13 107.723C466.016 107.723 449.114 128.855 449.114 159.489Z" fill="white"/>
<path d="M381.026 74.2247V243C381.025 244.623 380.38 246.181 379.232 247.329C378.083 248.477 376.526 249.122 374.902 249.122H337.502C336.698 249.123 335.902 248.964 335.159 248.657C334.416 248.349 333.74 247.898 333.172 247.33C332.603 246.761 332.152 246.086 331.845 245.343C331.537 244.6 331.379 243.804 331.38 243V235.539L309.005 245.494C301.833 248.583 294.186 250.422 286.394 250.933C284.103 251.108 281.727 251.204 279.258 251.204C241.933 251.204 207.424 232.542 207.424 168.456V74.2247C207.424 72.6005 208.07 71.0428 209.218 69.8943C210.367 68.7458 211.924 68.1006 213.548 68.1006H250.949C252.573 68.1006 254.13 68.7458 255.279 69.8943C256.427 71.0428 257.073 72.6005 257.073 74.2247V161.765C257.073 194.16 267.637 210.006 292.284 210.006C316.932 210.006 331.37 192.048 331.37 158.601V74.2247C331.37 72.6005 332.015 71.0428 333.164 69.8943C334.312 68.7458 335.87 68.1006 337.494 68.1006H374.894C375.699 68.0995 376.496 68.2572 377.24 68.5645C377.984 68.8718 378.66 69.3227 379.23 69.8915C379.799 70.4603 380.251 71.1357 380.559 71.8792C380.868 72.6228 381.026 73.4198 381.026 74.2247Z" fill="white"/>
</svg>
