<?xml version="1.0" standalone="no"?>
<!DOCTYPE svg PUBLIC "-//W3C//DTD SVG 20010904//EN"
 "http://www.w3.org/TR/2001/REC-SVG-20010904/DTD/svg10.dtd">
<svg version="1.0" xmlns="http://www.w3.org/2000/svg"
 width="61.000000pt" height="81.000000pt" viewBox="0 0 61.000000 81.000000"
 preserveAspectRatio="xMidYMid meet">

<g transform="translate(0.000000,81.000000) scale(0.100000,-0.100000)"
fill="#000000" stroke="none">
<path d="M0 405 l0 -405 305 0 305 0 0 405 0 405 -305 0 -305 0 0 -405z m391
321 c60 -21 107 -64 139 -129 45 -90 39 -155 -17 -172 -30 -8 -73 34 -73 72 0
68 -69 127 -148 125 -48 0 -105 -37 -125 -79 -10 -22 -4 -31 85 -121 53 -53
97 -104 98 -112 5 -34 -1 -50 -24 -65 -22 -15 -28 -15 -53 -2 -15 9 -75 63
-132 121 l-104 106 5 43 c10 89 81 182 161 211 52 18 140 19 188 2z m53 -295
l118 -118 -7 -44 c-29 -176 -212 -272 -370 -194 -84 41 -145 131 -145 214 0
45 20 71 55 71 33 0 52 -23 60 -71 13 -78 95 -139 168 -124 44 10 93 48 105
83 10 28 6 33 -89 128 -102 101 -115 127 -83 158 36 37 64 22 188 -103z"/>
</g>
</svg>
